HIERARCHY
ROOT pelvis
{
	OFFSET 0.003123 -0.351407 0.012037
	CHANNELS 6 Xposition Yposition Zposition Zrotation Yrotation Xrotation 
	JOINT left_hip
	{
		OFFSET 0.058189 -0.092763 -0.026001
		CHANNELS 3 Zrotation Yrotation Xrotation
		JOINT left_knee
		{
			OFFSET 0.054695 -0.378753 -0.009396
			CHANNELS 3 Zrotation Yrotation Xrotation
			JOINT left_ankle
			{
				OFFSET -0.043453 -0.403059 -0.031876
				CHANNELS 3 Zrotation Yrotation Xrotation
				JOINT left_foot
				{
					OFFSET 0.047257 -0.057997 0.118216
					CHANNELS 3 Zrotation Yrotation Xrotation
					End Site
					{
						OFFSET 0.000000 0.000000 0.000000
					}
				}
			}
		}
	}
	JOINT right_hip
	{
		OFFSET -0.063267 -0.103908 -0.021250
		CHANNELS 3 Zrotation Yrotation Xrotation
		JOINT right_knee
		{
			OFFSET -0.044210 -0.362380 -0.016824
			CHANNELS 3 Zrotation Yrotation Xrotation
			JOINT right_ankle
			{
				OFFSET 0.015417 -0.410728 -0.020192
				CHANNELS 3 Zrotation Yrotation Xrotation
				JOINT right_foot
				{
					OFFSET -0.038812 -0.058328 0.119049
					CHANNELS 3 Zrotation Yrotation Xrotation
					End Site
					{
						OFFSET 0.000000 0.000000 0.000000
					}
				}
			}
		}
	}
	JOINT spine_1
	{
		OFFSET -0.002763 0.109891 -0.027618
		CHANNELS 3 Zrotation Yrotation Xrotation
		JOINT spine_2
		{
			OFFSET 0.009448 0.131853 -0.005940
			CHANNELS 3 Zrotation Yrotation Xrotation
			JOINT spine_3
			{
				OFFSET -0.011330 0.052235 0.028447
				CHANNELS 3 Zrotation Yrotation Xrotation
				JOINT neck
				{
					OFFSET -0.012164 0.165167 -0.031615
					CHANNELS 3 Zrotation Yrotation Xrotation
					JOINT head
					{
						OFFSET 0.024783 0.160452 0.020737
						CHANNELS 3 Zrotation Yrotation Xrotation
						End Site
						{
							OFFSET 0.000000 0.000000 0.000000
						}
					}
				}
				JOINT left_collar
				{
					OFFSET 0.046364 0.084944 -0.007220
					CHANNELS 3 Zrotation Yrotation Xrotation
					JOINT left_shoulder
					{
						OFFSET 0.119239 0.057728 -0.015461
						CHANNELS 3 Zrotation Yrotation Xrotation
						JOINT left_elbow
						{
							OFFSET 0.254123 -0.072151 -0.042459
							CHANNELS 3 Zrotation Yrotation Xrotation
							JOINT left_wrist
							{
								OFFSET 0.251987 0.023221 -0.002472
								CHANNELS 3 Zrotation Yrotation Xrotation
								JOINT left_index_1
								{
									OFFSET 0.101902 -0.008688 0.019351
									CHANNELS 3 Zrotation Yrotation Xrotation
									JOINT left_index_2
									{
										OFFSET 0.030149 -0.011154 0.001151
										CHANNELS 3 Zrotation Yrotation Xrotation
										JOINT left_index_3
										{
											OFFSET 0.006504 -0.021577 -0.002433
											CHANNELS 3 Zrotation Yrotation Xrotation
											End Site
											{
												OFFSET 0.000000 0.000000 0.000000
											}
										}
									}
								}
								JOINT left_middle_1
								{
									OFFSET 0.109398 -0.006328 -0.003981
									CHANNELS 3 Zrotation Yrotation Xrotation
									JOINT left_middle_2
									{
										OFFSET 0.026472 -0.015218 -0.004641
										CHANNELS 3 Zrotation Yrotation Xrotation
										JOINT left_middle_3
										{
											OFFSET 0.005022 -0.023347 -0.001911
											CHANNELS 3 Zrotation Yrotation Xrotation
											End Site
											{
												OFFSET 0.000000 0.000000 0.000000
											}
										}
									}
								}
								JOINT left_pinky_1
								{
									OFFSET 0.084047 -0.014539 -0.043750
									CHANNELS 3 Zrotation Yrotation Xrotation
									JOINT left_pinky_2
									{
										OFFSET 0.012124 -0.014448 -0.005375
										CHANNELS 3 Zrotation Yrotation Xrotation
										JOINT left_pinky_3
										{
											OFFSET 0.003798 -0.018853 0.000167
											CHANNELS 3 Zrotation Yrotation Xrotation
											End Site
											{
												OFFSET 0.000000 0.000000 0.000000
											}
										}
									}
								}
								JOINT left_ring_1
								{
									OFFSET 0.097444 -0.009268 -0.027345
									CHANNELS 3 Zrotation Yrotation Xrotation
									JOINT left_ring_2
									{
										OFFSET 0.023561 -0.016057 -0.001895
										CHANNELS 3 Zrotation Yrotation Xrotation
										JOINT left_ring_3
										{
											OFFSET 0.004257 -0.023548 0.000814
											CHANNELS 3 Zrotation Yrotation Xrotation
											End Site
											{
												OFFSET 0.000000 0.000000 0.000000
											}
										}
									}
								}
								JOINT left_thumb_1
								{
									OFFSET 0.040636 -0.017977 0.025611
									CHANNELS 3 Zrotation Yrotation Xrotation
									JOINT left_thumb_2
									{
										OFFSET 0.021637 -0.017639 0.011623
										CHANNELS 3 Zrotation Yrotation Xrotation
										JOINT left_thumb_3
										{
											OFFSET 0.024002 -0.008356 0.006548
											CHANNELS 3 Zrotation Yrotation Xrotation
											End Site
											{
												OFFSET 0.000000 0.000000 0.000000
											}
										}
									}
								}
							}
						}
					}
				}
				JOINT right_collar
				{
					OFFSET -0.047695 0.084339 -0.013400
					CHANNELS 3 Zrotation Yrotation Xrotation
					JOINT right_shoulder
					{
						OFFSET -0.102578 0.053524 -0.012669
						CHANNELS 3 Zrotation Yrotation Xrotation
						JOINT right_elbow
						{
							OFFSET -0.271150 -0.036492 -0.026467
							CHANNELS 3 Zrotation Yrotation Xrotation
							JOINT right_wrist
							{
								OFFSET -0.249267 -0.004533 -0.015325
								CHANNELS 3 Zrotation Yrotation Xrotation
								JOINT right_index_1
								{
									OFFSET -0.099881 -0.011783 0.019600
									CHANNELS 3 Zrotation Yrotation Xrotation
									JOINT right_index_2
									{
										OFFSET -0.030148 -0.011154 0.001151
										CHANNELS 3 Zrotation Yrotation Xrotation
										JOINT right_index_3
										{
											OFFSET -0.006505 -0.021577 -0.002432
											CHANNELS 3 Zrotation Yrotation Xrotation
											End Site
											{
												OFFSET 0.000000 0.000000 0.000000
											}
										}
									}
								}
								JOINT right_middle_1
								{
									OFFSET -0.107376 -0.009422 -0.003734
									CHANNELS 3 Zrotation Yrotation Xrotation
									JOINT right_middle_2
									{
										OFFSET -0.026472 -0.015218 -0.004641
										CHANNELS 3 Zrotation Yrotation Xrotation
										JOINT right_middle_3
										{
											OFFSET -0.005022 -0.023347 -0.001911
											CHANNELS 3 Zrotation Yrotation Xrotation
											End Site
											{
												OFFSET 0.000000 0.000000 0.000000
											}
										}
									}
								}
								JOINT right_pinky_1
								{
									OFFSET -0.082027 -0.017634 -0.043503
									CHANNELS 3 Zrotation Yrotation Xrotation
									JOINT right_pinky_2
									{
										OFFSET -0.012123 -0.014448 -0.005374
										CHANNELS 3 Zrotation Yrotation Xrotation
										JOINT right_pinky_3
										{
											OFFSET -0.003798 -0.018852 0.000167
											CHANNELS 3 Zrotation Yrotation Xrotation
											End Site
											{
												OFFSET 0.000000 0.000000 0.000000
											}
										}
									}
								}
								JOINT right_ring_1
								{
									OFFSET -0.095423 -0.012362 -0.027099
									CHANNELS 3 Zrotation Yrotation Xrotation
									JOINT right_ring_2
									{
										OFFSET -0.023561 -0.016057 -0.001895
										CHANNELS 3 Zrotation Yrotation Xrotation
										JOINT right_ring_3
										{
											OFFSET -0.004257 -0.023548 0.000816
											CHANNELS 3 Zrotation Yrotation Xrotation
											End Site
											{
												OFFSET 0.000000 0.000000 0.000000
											}
										}
									}
								}
								JOINT right_thumb_1
								{
									OFFSET -0.038613 -0.021074 0.025861
									CHANNELS 3 Zrotation Yrotation Xrotation
									JOINT right_thumb_2
									{
										OFFSET -0.021636 -0.017639 0.011623
										CHANNELS 3 Zrotation Yrotation Xrotation
										JOINT right_thumb_3
										{
											OFFSET -0.024004 -0.008353 0.006547
											CHANNELS 3 Zrotation Yrotation Xrotation
											End Site
											{
												OFFSET 0.000000 0.000000 0.000000
											}
										}
									}
								}
							}
						}
					}
				}
			}
		}
	}
}
MOTION
Frames: 4
Frame Time: 0.033333
0.952621 0.922969 0.036224 -3.497798 32.341976 -11.811052 7.809714 -1.191245 -5.130509 -6.537841 -2.241109 19.906657 9.921318 4.136479 -12.751238 0.000000 0.000000 0.000000 10.100648 2.038763 -13.182737 -0.448232 -3.562632 36.890255 0.676871 0.584020 1.585599 0.000000 0.000000 0.000000 -4.677344 -0.671501 15.371448 -10.066359 1.891497 -16.861149 9.521015 2.000187 26.754538 -0.304606 0.577230 -2.072451 0.000000 0.000000 0.000000 6.904254 -14.278382 7.653765 -8.289095 -41.729226 -15.154651 45.527910 -33.626466 -15.139683 22.805125 -7.595636 -13.639435 5.612740 -1.876350 -0.920371 17.724935 -1.278147 0.659358 0.000000 0.000000 0.000000 4.240216 -15.714622 -8.259493 16.089661 -0.930189 -4.185991 0.000000 0.000000 0.000000 27.447904 -18.369080 -22.546681 13.927403 0.213118 -0.185624 0.000000 0.000000 0.000000 6.760554 -15.908432 -11.193591 26.263189 1.229895 2.010189 0.000000 0.000000 0.000000 18.733568 21.960406 11.274782 -11.819822 -20.200745 -2.217446 0.000000 0.000000 0.000000 -4.158881 -6.987800 -4.120505 48.627214 13.307759 3.862873 -177.628606 55.554752 -164.964764 -18.631318 17.539167 -7.808978 66.359304 -35.622092 -9.049039 77.623133 -3.779160 -7.077483 0.000000 0.000000 0.000000 118.318461 10.069280 -9.071003 -4.341012 10.091086 -32.399223 0.000000 0.000000 0.000000 45.883357 77.352749 -65.896588 -17.198202 -0.281621 15.095408 0.000000 0.000000 0.000000 128.598030 63.359129 38.613637 -35.375257 0.389520 -10.396511 0.000000 0.000000 0.000000 31.756191 -3.806893 16.104352 -105.915200 -31.365585 25.095695 0.000000 0.000000 0.000000 
0.960159 0.922808 0.040184 -4.027043 30.154375 -11.026474 7.899066 -1.154014 -5.100419 -6.113710 -2.113996 19.371845 10.697725 6.147801 -12.843832 0.000000 0.000000 0.000000 11.281971 2.086032 -12.559431 3.515313 -4.098573 32.667455 -6.332898 -13.656914 11.823467 0.000000 0.000000 0.000000 -3.735220 -0.721397 15.267991 -8.823230 1.174081 -17.531341 6.532020 1.723629 28.546759 0.272377 0.659016 -3.046113 0.000000 0.000000 0.000000 7.676938 -9.589570 5.941049 -11.179692 -42.562328 -14.788352 49.015254 -34.423655 -16.432925 20.245716 -7.082033 -13.676227 3.140624 0.081572 -0.130760 8.976756 -4.175574 -18.957804 0.000000 0.000000 0.000000 3.485883 -14.900530 -7.889906 13.821455 -0.757701 -2.946927 0.000000 0.000000 0.000000 25.392971 -20.837910 -28.335126 14.821217 0.223565 0.300911 0.000000 0.000000 0.000000 3.820657 -14.804943 -10.137046 22.691967 1.272878 -12.070241 0.000000 0.000000 0.000000 19.837045 17.923404 5.452685 -13.138810 -6.185674 1.512697 0.000000 0.000000 0.000000 -2.500679 -6.259432 -3.609399 44.714018 17.288258 3.784095 -174.772353 53.026866 -158.656364 -20.767025 24.620891 -14.694393 112.573216 -53.469575 -45.396541 57.723590 -1.625117 -1.287650 0.000000 0.000000 0.000000 118.944803 -4.621459 -17.991067 -8.842451 5.178016 -24.626687 0.000000 0.000000 0.000000 80.498720 74.531193 -37.683876 -23.128017 0.438554 17.370325 0.000000 0.000000 0.000000 128.816491 52.767234 31.234070 -42.916591 -0.748688 -9.366200 0.000000 0.000000 0.000000 32.101993 -22.269395 25.227656 -122.786095 -26.699739 16.530526 0.000000 0.000000 0.000000 
0.971466 0.919061 0.049423 -2.198804 27.593849 -10.471420 6.272714 -1.002308 -5.164951 -7.404375 -2.275028 22.419671 12.239911 9.663144 -13.418080 0.000000 0.000000 0.000000 10.179166 1.544816 -8.997248 5.662222 -3.845783 28.492647 -12.699793 -24.581471 8.489815 0.000000 0.000000 0.000000 -6.057241 -0.611692 14.650232 -7.388350 0.440988 -17.914773 6.813497 2.872038 30.011645 1.869399 0.426862 -2.921026 0.000000 0.000000 0.000000 7.918333 -7.305118 5.074922 -17.607414 -40.051276 -12.744329 52.590712 -38.074009 -19.250126 18.937347 -7.237656 -11.879381 1.974244 -0.329151 -0.206511 17.836695 -1.364401 -0.597798 0.000000 0.000000 0.000000 1.246895 -8.000197 -4.179627 13.031156 -2.051796 -15.185819 0.000000 0.000000 0.000000 25.638314 -20.541589 -27.610036 16.595522 0.185657 0.004772 0.000000 0.000000 0.000000 4.263429 -14.231828 -9.823339 22.127384 1.149152 -12.219361 0.000000 0.000000 0.000000 17.932183 17.219976 5.933580 -13.222094 -5.923151 1.713289 0.000000 0.000000 0.000000 -3.620807 -5.141626 -3.089588 43.939342 17.451871 3.649581 -173.266189 48.659237 -153.305351 -22.303083 23.723501 -18.031986 154.333863 -48.806097 -80.641648 56.317736 22.151003 -28.415919 0.000000 0.000000 0.000000 131.858641 5.714708 -13.022969 -60.419247 -5.143729 -29.010399 0.000000 0.000000 0.000000 84.394513 73.716519 -34.968573 -25.586464 0.657800 16.190096 0.000000 0.000000 0.000000 129.935458 54.283319 33.206402 -46.081921 -0.889257 -7.153986 0.000000 0.000000 0.000000 82.942912 54.523816 60.409622 -154.124098 -35.204479 92.884272 0.000000 0.000000 0.000000 
0.979004 0.912735 0.052063 -0.525295 22.841172 -10.141992 6.397306 -1.034975 -6.121677 -11.923384 -1.546544 26.046293 13.914396 15.484544 -12.826031 0.000000 0.000000 0.000000 10.542406 1.242386 -7.106616 4.588060 -2.684310 27.546226 -15.242354 -30.238805 2.599421 0.000000 0.000000 0.000000 -8.485495 -0.566881 14.875656 -6.390396 -0.311578 -18.479518 8.189266 5.000653 30.259312 1.790868 0.518047 -3.409138 0.000000 0.000000 0.000000 6.824896 -4.500741 3.677269 -19.413906 -37.066853 -11.360072 50.505052 -42.524944 -20.099547 19.781130 -4.445940 -11.967920 0.104680 2.765991 0.792307 1.370956 -3.702366 -15.245839 0.000000 0.000000 0.000000 0.361044 -11.880888 -6.173867 9.621646 -0.486097 -2.027340 0.000000 0.000000 0.000000 26.064610 -19.178901 -25.011985 9.813972 -0.012750 -1.247636 0.000000 0.000000 0.000000 3.187126 -11.928462 -8.047536 16.950926 0.366924 -13.161767 0.000000 0.000000 0.000000 14.029435 20.801981 11.218806 -10.379511 -9.240046 -0.169753 0.000000 0.000000 0.000000 -4.407163 -3.499001 -2.286735 42.491143 18.001018 3.393822 -170.140701 47.264418 -145.243572 -22.562843 19.274249 -23.693160 141.977471 -52.408592 -85.325099 62.830152 8.770590 -10.644575 0.000000 0.000000 0.000000 124.356241 6.192423 -11.180909 -21.395844 3.345138 -21.982274 0.000000 0.000000 0.000000 92.577962 73.796242 -30.384087 -32.054537 1.371444 25.105292 0.000000 0.000000 0.000000 141.146395 59.134720 44.190688 -45.427375 -0.426178 -0.116019 0.000000 0.000000 0.000000 54.024224 28.055035 50.735076 -127.430643 -40.504664 99.158232 0.000000 0.000000 0.000000 
